<svg xmlns="http://www.w3.org/2000/svg" viewBox="0 0 800 450" width="800" height="450">
  <defs>
    <linearGradient id="bg" x1="0" y1="0" x2="1" y2="1">
      <stop offset="0" stop-color="#0a0a0f"/>
      <stop offset="1" stop-color="#131320"/>
    </linearGradient>
    <linearGradient id="acc" x1="0" y1="0" x2="1" y2="0">
      <stop offset="0" stop-color="#6366f1"/>
      <stop offset="1" stop-color="#22d3ee"/>
    </linearGradient>
  </defs>
  <rect width="800" height="450" fill="url(#bg)"/>
  <!-- Topbar -->
  <rect x="40" y="36" width="720" height="40" rx="8" fill="#1a1a2e"/>
  <rect x="60" y="49" width="90" height="14" rx="7" fill="url(#acc)"/>
  <rect x="580" y="49" width="60" height="14" rx="7" fill="#2a2a40"/>
  <rect x="656" y="49" width="60" height="14" rx="7" fill="#2a2a40"/>
  <!-- Product cards -->
  <g>
    <rect x="40" y="100" width="224" height="180" rx="12" fill="#151525" stroke="#26263a"/>
    <rect x="56" y="116" width="192" height="90" rx="8" fill="#20203a"/>
    <circle cx="152" cy="161" r="28" fill="url(#acc)" opacity="0.8"/>
    <rect x="56" y="220" width="120" height="12" rx="6" fill="#3a3a55"/>
    <rect x="56" y="244" width="70" height="12" rx="6" fill="#6366f1"/>
    <rect x="288" y="100" width="224" height="180" rx="12" fill="#151525" stroke="#26263a"/>
    <rect x="304" y="116" width="192" height="90" rx="8" fill="#20203a"/>
    <circle cx="400" cy="161" r="28" fill="#22d3ee" opacity="0.7"/>
    <rect x="304" y="220" width="120" height="12" rx="6" fill="#3a3a55"/>
    <rect x="304" y="244" width="70" height="12" rx="6" fill="#6366f1"/>
    <rect x="536" y="100" width="224" height="180" rx="12" fill="#151525" stroke="#26263a"/>
    <rect x="552" y="116" width="192" height="90" rx="8" fill="#20203a"/>
    <circle cx="648" cy="161" r="28" fill="#8b5cf6" opacity="0.7"/>
    <rect x="552" y="220" width="120" height="12" rx="6" fill="#3a3a55"/>
    <rect x="552" y="244" width="70" height="12" rx="6" fill="#6366f1"/>
  </g>
  <!-- Chart bar -->
  <rect x="40" y="304" width="720" height="110" rx="12" fill="#151525" stroke="#26263a"/>
  <rect x="70" y="356" width="30" height="40" rx="4" fill="#6366f1" opacity="0.7"/>
  <rect x="116" y="340" width="30" height="56" rx="4" fill="#6366f1" opacity="0.85"/>
  <rect x="162" y="326" width="30" height="70" rx="4" fill="url(#acc)"/>
  <rect x="208" y="348" width="30" height="48" rx="4" fill="#6366f1" opacity="0.6"/>
  <rect x="254" y="332" width="30" height="64" rx="4" fill="#22d3ee" opacity="0.7"/>
  <rect x="300" y="318" width="30" height="78" rx="4" fill="#22d3ee" opacity="0.9"/>
  <rect x="560" y="330" width="170" height="16" rx="8" fill="#2a2a40"/>
  <rect x="600" y="358" width="130" height="16" rx="8" fill="url(#acc)"/>
</svg>
